<svg width="213" height="76" viewBox="0 0 213 76" fill="none" xmlns="http://www.w3.org/2000/svg">
<g id="Frame" clip-path="url(#clip0_33_6)">
<g id="Group">
<path id="Vector" d="M57.3062 71.2482V57.9137H62.2442C63.3415 57.9137 64.2233 58.2076 64.8993 58.7955C65.5754 59.3833 65.9085 60.1867 65.9085 61.2057C65.9085 61.9797 65.7223 62.6067 65.35 63.1064C64.9777 63.5963 64.4585 63.949 63.7922 64.1645V64.2135C64.2527 64.2919 64.6642 64.4193 65.0365 64.6054C65.4088 64.7916 65.7028 65.0267 65.9379 65.3109C66.173 65.595 66.3592 65.9281 66.4768 66.3004C66.6041 66.6727 66.6629 67.0842 66.6629 67.5153C66.6629 68.7106 66.2416 69.6316 65.3892 70.2783C64.5466 70.9249 63.4199 71.2482 62.0091 71.2482H57.3062ZM58.8738 59.3147V63.6845H60.9607C62.0972 63.6845 62.9398 63.5081 63.4885 63.1652C64.0372 62.8223 64.3115 62.254 64.3115 61.4604C64.3115 60.7452 64.0959 60.2063 63.6746 59.8536C63.2534 59.5009 62.6949 59.3245 62.0189 59.3245H58.8738V59.3147ZM58.8738 65.0855V69.8276H61.2448C61.7151 69.8276 62.1364 69.808 62.4891 69.7786C62.8419 69.7492 63.1946 69.6806 63.5277 69.5826C63.8608 69.4846 64.1351 69.3573 64.3605 69.1907C64.576 69.0242 64.7524 68.8086 64.8896 68.5343C65.0169 68.2599 65.0855 67.9268 65.0855 67.5447C65.0855 66.7413 64.8308 66.1241 64.3115 65.7028C63.7922 65.2815 63.0966 65.0757 62.2148 65.0757H58.8738V65.0855ZM69.808 71.2482V60.9901H71.3364V62.5773H71.4148C71.5911 62.1168 71.9046 61.7151 72.3553 61.3624C72.806 61.0195 73.4527 60.8432 74.2855 60.8432C74.4128 60.8432 74.6088 60.853 74.8831 60.8823V62.303C74.7361 62.2834 74.4716 62.2638 74.0895 62.2638C73.4919 62.2638 72.9824 62.3814 72.5611 62.6067C72.1398 62.8321 71.8263 63.1358 71.6303 63.5081C71.4246 63.8804 71.3266 64.2919 71.3266 64.772V71.2482H69.808ZM81.134 60.8334C82.4175 60.8334 83.456 61.2351 84.2692 62.0287C85.0726 62.8223 85.4841 63.9196 85.4841 65.3109V66.9373C85.4841 68.3285 85.0726 69.4259 84.2594 70.2293C83.4462 71.0327 82.4077 71.4246 81.134 71.4246C79.8407 71.4246 78.7826 71.0327 77.989 70.2391C77.1856 69.4455 76.7839 68.3481 76.7839 66.9373V65.3109C76.7839 63.9686 77.1954 62.8811 78.0086 62.0581C78.8316 61.2449 79.8799 60.8334 81.134 60.8334ZM78.3123 65.4774V66.7609C78.3123 67.4369 78.42 68.0248 78.6454 68.5147C78.8707 69.0046 79.1941 69.3867 79.6154 69.6512C80.0367 69.9255 80.5461 70.0529 81.134 70.0529C82.0158 70.0529 82.7016 69.759 83.1915 69.1613C83.6814 68.5637 83.9361 67.7701 83.9361 66.7511V65.4676C83.9361 64.4683 83.6814 63.6747 83.1817 63.077C82.6722 62.4794 81.9962 62.1854 81.1438 62.1854C80.2914 62.1854 79.6056 62.4892 79.0863 63.0868C78.567 63.7041 78.3123 64.4977 78.3123 65.4774ZM90.138 67.4174V71.2482H88.5998V57.2082H90.138V65.7028H90.187L94.5175 60.9901H96.3301L92.2249 65.4578L96.5946 71.2482H94.7429L91.1178 66.4278L90.138 67.4174ZM102.61 71.4246C101.268 71.4246 100.22 71.0229 99.4653 70.2195C98.7109 69.4161 98.3288 68.3285 98.3288 66.9569V65.3011C98.3288 63.9588 98.7207 62.8713 99.4947 62.0581C100.269 61.2449 101.278 60.8334 102.503 60.8334C103.727 60.8334 104.727 61.2449 105.51 62.0581C106.284 62.8713 106.676 63.949 106.676 65.3011V66.5552H99.8768V67.0744C99.8768 67.9464 100.122 68.6617 100.602 69.2201C101.082 69.7786 101.758 70.0627 102.63 70.0627C103.228 70.0627 103.727 69.9451 104.129 69.7002C104.531 69.4553 104.795 69.1711 104.903 68.8282H106.529C106.48 69.1123 106.363 69.4063 106.186 69.6904C106.01 69.9745 105.765 70.2587 105.461 70.5232C105.158 70.7877 104.756 71.0131 104.266 71.1796C103.757 71.3364 103.208 71.4246 102.61 71.4246ZM99.867 65.3599H105.119V65.1835C105.119 64.5858 105.011 64.0568 104.795 63.6061C104.58 63.1554 104.266 62.8027 103.874 62.5577C103.473 62.3128 103.012 62.1952 102.493 62.1952C101.709 62.1952 101.072 62.4696 100.592 63.0084C100.112 63.5473 99.867 64.2723 99.867 65.1835V65.3599ZM109.861 71.2482V60.9901H111.389V62.5773H111.467C111.644 62.1168 111.957 61.7151 112.408 61.3624C112.859 61.0195 113.505 60.8432 114.338 60.8432C114.465 60.8432 114.661 60.853 114.936 60.8823V62.303C114.789 62.2834 114.524 62.2638 114.142 62.2638C113.544 62.2638 113.035 62.3814 112.614 62.6067C112.192 62.8321 111.879 63.1358 111.683 63.5081C111.477 63.8804 111.379 64.2919 111.379 64.772V71.2482H109.861ZM120.089 71.4246C119.599 71.4246 119.149 71.3462 118.737 71.1894C118.316 71.0327 117.963 70.8171 117.679 70.5526C117.395 70.2881 117.16 69.9549 116.993 69.563C116.827 69.1711 116.738 68.74 116.738 68.2697C116.738 67.6721 116.876 67.1528 117.14 66.7119C117.405 66.271 117.816 65.9183 118.365 65.6636C118.914 65.4088 119.57 65.2815 120.324 65.2815H123.068V64.2331C123.068 63.5473 122.872 63.0476 122.47 62.7145C122.068 62.3814 121.51 62.2246 120.785 62.2246C119.599 62.2246 118.874 62.6361 118.61 63.4493H117.121C117.209 62.5871 117.571 61.9405 118.228 61.4996C118.884 61.0587 119.756 60.8432 120.853 60.8432C121.961 60.8432 122.862 61.1175 123.567 61.6662C124.263 62.2148 124.616 63.0672 124.616 64.2233V71.2678H123.117V69.8864H123.068C122.431 70.9053 121.441 71.4246 120.089 71.4246ZM120.481 70.0921C121.216 70.0921 121.833 69.8668 122.333 69.4161C122.833 68.9654 123.078 68.4069 123.078 67.7407V66.5454H120.364C119.668 66.5454 119.149 66.7021 118.816 67.0157C118.492 67.3292 118.326 67.7407 118.326 68.2404C118.326 68.838 118.531 69.2985 118.953 69.612C119.384 69.9353 119.884 70.0921 120.481 70.0921ZM131.739 73.7368C132.679 73.7368 133.385 73.5017 133.865 73.0314C134.345 72.5611 134.58 71.8949 134.58 71.0327V69.4651H134.482C134.345 69.7688 134.139 70.0333 133.875 70.2783C133.61 70.5232 133.277 70.7093 132.875 70.8563C132.473 71.0033 132.052 71.0719 131.592 71.0719C130.827 71.0719 130.142 70.9053 129.524 70.5722C128.907 70.2391 128.417 69.7492 128.045 69.0927C127.673 68.4461 127.496 67.6917 127.496 66.8393V65.0953C127.496 64.4585 127.604 63.8706 127.82 63.3317C128.035 62.7929 128.319 62.3422 128.692 61.9797C129.064 61.6172 129.495 61.3428 129.985 61.1371C130.485 60.9411 131.014 60.8432 131.592 60.8432C132.307 60.8432 132.944 61.0097 133.483 61.3526C134.031 61.6955 134.394 62.0875 134.58 62.5381H134.649V60.9999H136.099V71.0131C136.099 72.3749 135.707 73.3939 134.923 74.0797C134.139 74.7656 133.052 75.1085 131.66 75.1085C130.436 75.1085 129.505 74.8537 128.839 74.3345C128.172 73.8152 127.81 73.1588 127.722 72.3651H129.328C129.397 72.7473 129.652 73.0706 130.073 73.3449C130.504 73.5996 131.053 73.7368 131.739 73.7368ZM131.895 62.1952C131.454 62.1952 131.063 62.2736 130.7 62.4304C130.338 62.5871 130.044 62.8027 129.799 63.0868C129.554 63.3709 129.368 63.7139 129.24 64.1254C129.113 64.5369 129.044 64.9777 129.044 65.4578V66.467C129.044 67.4271 129.309 68.2012 129.848 68.7988C130.387 69.3965 131.072 69.7002 131.915 69.7002C132.738 69.7002 133.385 69.4161 133.865 68.8478C134.345 68.2795 134.57 67.5937 134.57 66.8099V65.1541C134.57 64.3507 134.325 63.6551 133.835 63.0672C133.345 62.4892 132.699 62.1952 131.895 62.1952ZM143.28 71.4246C141.938 71.4246 140.89 71.0229 140.135 70.2195C139.381 69.4161 138.999 68.3285 138.999 66.9569V65.3011C138.999 63.9588 139.391 62.8713 140.165 62.0581C140.939 61.2449 141.948 60.8334 143.172 60.8334C144.397 60.8334 145.396 61.2449 146.18 62.0581C146.954 62.8713 147.346 63.949 147.346 65.3011V66.5552H140.547V67.0744C140.547 67.9464 140.792 68.6617 141.272 69.2201C141.752 69.7786 142.428 70.0627 143.3 70.0627C143.897 70.0627 144.397 69.9451 144.799 69.7002C145.201 69.4553 145.465 69.1711 145.573 68.8282H147.199C147.15 69.1123 147.033 69.4063 146.856 69.6904C146.68 69.9745 146.435 70.2587 146.131 70.5232C145.828 70.7877 145.426 71.0131 144.936 71.1796C144.446 71.3462 143.878 71.4246 143.28 71.4246ZM140.537 65.3599H145.788V65.1835C145.788 64.5858 145.681 64.0568 145.465 63.6061C145.25 63.1554 144.936 62.8027 144.544 62.5577C144.142 62.3128 143.682 62.1952 143.163 62.1952C142.379 62.1952 141.742 62.4696 141.262 63.0084C140.782 63.5473 140.537 64.2723 140.537 65.1835V65.3599ZM164.982 71.2482H163.434V65.0267H156.546V71.2482H154.979V57.9137H156.546V63.6257H163.434V57.9137H164.982V71.2482ZM172.516 60.8334C173.8 60.8334 174.838 61.2351 175.652 62.0287C176.455 62.8223 176.866 63.9196 176.866 65.3109V66.9373C176.866 68.3285 176.455 69.4259 175.642 70.2293C174.829 71.0327 173.79 71.4246 172.516 71.4246C171.223 71.4246 170.165 71.0327 169.371 70.2391C168.568 69.4455 168.166 68.3481 168.166 66.9373V65.3109C168.166 63.9686 168.578 62.8811 169.391 62.0581C170.214 61.2449 171.252 60.8334 172.516 60.8334ZM169.685 65.4774V66.7609C169.685 67.4369 169.793 68.0248 170.018 68.5147C170.243 69.0046 170.567 69.3867 170.988 69.6512C171.409 69.9255 171.919 70.0529 172.506 70.0529C173.388 70.0529 174.074 69.759 174.564 69.1613C175.054 68.5637 175.309 67.7701 175.309 66.7511V65.4676C175.309 64.4683 175.054 63.6747 174.554 63.077C174.045 62.4794 173.369 62.1854 172.516 62.1854C171.664 62.1854 170.978 62.4892 170.459 63.0868C169.949 63.7041 169.685 64.4977 169.685 65.4774ZM188.065 60.9901V71.2482H186.537V69.5532H186.439C186.262 70.0529 185.919 70.484 185.4 70.8563C184.881 71.2286 184.215 71.4148 183.392 71.4148C182.294 71.4148 181.432 71.1502 180.805 70.631C180.178 70.1117 179.855 69.2887 179.855 68.1718V60.9901H181.403V67.7701C181.403 69.3181 182.177 70.0823 183.735 70.0823C184.528 70.0823 185.185 69.8374 185.723 69.3377C186.262 68.838 186.527 68.2501 186.527 67.5643V60.9901H188.065ZM191.151 63.9098C191.151 62.9007 191.504 62.1364 192.219 61.6172C192.934 61.0979 193.816 60.8334 194.884 60.8334C195.413 60.8334 195.903 60.9019 196.354 61.0489C196.805 61.1959 197.187 61.3918 197.49 61.6368C197.804 61.8817 198.039 62.1854 198.206 62.5283C198.372 62.8713 198.46 63.2534 198.46 63.6649H197.03C197.01 63.4003 196.912 63.1554 196.756 62.9203C196.599 62.6851 196.354 62.4892 196.011 62.3324C195.668 62.1658 195.266 62.0875 194.806 62.0875C194.385 62.0875 194.002 62.1462 193.689 62.2736C193.366 62.401 193.111 62.5871 192.925 62.8419C192.739 63.0966 192.641 63.3905 192.641 63.7237C192.641 63.9588 192.69 64.1743 192.788 64.3409C192.886 64.5075 193.003 64.6544 193.121 64.7524C193.248 64.8504 193.434 64.9484 193.669 65.0365C193.914 65.1247 194.11 65.1835 194.267 65.2129C194.424 65.2423 194.649 65.2913 194.953 65.3501C194.972 65.3501 195.002 65.3501 195.021 65.3599C195.041 65.3697 195.061 65.3697 195.09 65.3697C195.119 65.3697 195.139 65.3794 195.159 65.399C195.521 65.4578 195.825 65.5166 196.089 65.5852C196.354 65.644 196.628 65.7322 196.922 65.8301C197.216 65.9281 197.461 66.0457 197.657 66.1829C197.853 66.32 198.039 66.4866 198.215 66.6727C198.392 66.8687 198.519 67.094 198.598 67.3586C198.676 67.6231 198.715 67.917 198.715 68.2404C198.715 69.2299 198.343 70.0137 197.608 70.5722C196.873 71.1306 195.903 71.4148 194.688 71.4148C193.571 71.4148 192.66 71.1698 191.974 70.6702C191.288 70.1705 190.936 69.4846 190.936 68.5833H192.445C192.592 69.6022 193.366 70.1215 194.757 70.1215C195.306 70.1215 195.766 70.0431 196.148 69.8864C196.52 69.7296 196.795 69.5336 196.952 69.2887C197.118 69.0438 197.196 68.7596 197.196 68.4265C197.196 68.2012 197.147 67.9954 197.059 67.8289C196.971 67.6525 196.854 67.5153 196.726 67.4076C196.599 67.2998 196.403 67.2018 196.138 67.1038C195.874 67.0059 195.648 66.9373 195.452 66.8981C195.257 66.8589 194.982 66.8001 194.62 66.7217C194.149 66.6237 193.777 66.5454 193.503 66.4768C193.228 66.4082 192.915 66.3004 192.572 66.1535C192.229 66.0065 191.965 65.8399 191.778 65.6538C191.592 65.4676 191.445 65.2325 191.318 64.9484C191.21 64.6544 191.151 64.3115 191.151 63.9098ZM205.495 71.4246C204.153 71.4246 203.104 71.0229 202.35 70.2195C201.596 69.4161 201.213 68.3285 201.213 66.9569V65.3011C201.213 63.9588 201.605 62.8713 202.379 62.0581C203.153 61.2449 204.163 60.8334 205.387 60.8334C206.612 60.8334 207.611 61.2449 208.395 62.0581C209.169 62.8713 209.561 63.949 209.561 65.3011V66.5552H202.761V67.0744C202.761 67.9464 203.006 68.6617 203.487 69.2201C203.967 69.7786 204.643 70.0627 205.515 70.0627C206.112 70.0627 206.612 69.9451 207.014 69.7002C207.415 69.4553 207.68 69.1711 207.788 68.8282H209.414C209.365 69.1123 209.257 69.4063 209.071 69.6904C208.895 69.9745 208.65 70.2587 208.346 70.5232C208.042 70.7877 207.641 71.0131 207.151 71.1796C206.661 71.3462 206.093 71.4246 205.495 71.4246ZM202.752 65.3599H208.003V65.1835C208.003 64.5858 207.895 64.0568 207.68 63.6061C207.464 63.1554 207.151 62.8027 206.759 62.5577C206.357 62.3128 205.897 62.1952 205.377 62.1952C204.594 62.1952 203.957 62.4696 203.477 63.0084C202.997 63.5473 202.752 64.2723 202.752 65.1835V65.3599Z" fill="white"/>
<g id="Group_2">
<path id="Vector_2" d="M65.8889 41.4243H87.3751V47.9887H57.6589V0.646667H65.8791V41.4243H65.8889Z" fill="white"/>
<path id="Vector_3" d="M120.795 36.9664H102.463L98.6227 47.9887H90.0694L107.95 0.656464H115.328L133.247 47.9887H124.665L120.795 36.9664ZM104.766 30.3334H118.482L111.624 10.699L104.766 30.3334Z" fill="white"/>
<path id="Vector_4" d="M163.355 35.8005C163.355 33.7234 162.621 32.1166 161.161 30.9899C159.701 29.8631 157.056 28.7266 153.244 27.5803C149.433 26.434 146.396 25.1505 144.142 23.7396C139.831 21.0355 137.676 17.4986 137.676 13.1386C137.676 9.32735 139.234 6.18232 142.34 3.71332C145.445 1.23453 149.482 3.05176e-05 154.449 3.05176e-05C157.741 3.05176e-05 160.681 0.607482 163.258 1.82239C165.834 3.03729 167.862 4.76167 169.332 7.00532C170.802 9.24897 171.546 11.7376 171.546 14.4711H163.355C163.355 12.0021 162.581 10.0622 161.033 8.67091C159.485 7.26986 157.261 6.57423 154.381 6.57423C151.696 6.57423 149.609 7.15228 148.12 8.2986C146.631 9.44492 145.896 11.0517 145.896 13.1092C145.896 14.8434 146.7 16.2935 148.297 17.4496C149.903 18.6057 152.549 19.7324 156.233 20.8297C159.917 21.9271 162.875 23.1714 165.109 24.5724C167.343 25.9735 168.979 27.5705 170.018 29.3831C171.056 31.1956 171.576 33.3119 171.576 35.7417C171.576 39.6901 170.067 42.8254 167.039 45.1572C164.012 47.489 159.917 48.6549 154.734 48.6549C151.304 48.6549 148.159 48.0181 145.289 46.7542C142.418 45.4903 140.184 43.7366 138.587 41.5027C136.99 39.2688 136.197 36.6725 136.197 33.7038H144.417C144.417 36.3883 145.308 38.4752 147.082 39.9449C148.855 41.4243 151.402 42.1591 154.724 42.1591C157.585 42.1591 159.73 41.5811 161.18 40.4152C162.63 39.2394 163.355 37.7012 163.355 35.8005Z" fill="white"/>
<path id="Vector_5" d="M213 7.27965H198.235V47.9887H190.074V7.27965H175.446V0.646667H213V7.27965Z" fill="white"/>
</g>
<g id="Group_3">
<g id="Group_4">
<path id="Vector_6" d="M45.9116 23.4163C41.3557 8.43574 23.9747 3.91904 13.3639 14.0498C15.6272 16.0975 17.8806 18.1354 20.2712 20.2908C13.5305 20.2908 6.95629 20.2908 0.186142 20.2908C0.186142 14.2947 0.186142 8.31817 0.186142 2.23385C2.36121 4.17378 4.56567 6.1529 6.83872 8.1908C7.15224 7.95566 7.44617 7.74011 7.7205 7.51476C16.5873 0.313522 30.5587 0.11757 39.3178 7.14245C44.1284 11.0027 46.4505 16.0485 46.0683 22.2602C46.0487 22.5737 45.99 22.897 45.9116 23.4163Z" fill="white"/>
<path id="Vector_7" d="M0.225335 51.7216C5.54544 67.2116 22.4855 70.8367 32.7436 61.0391C30.4803 58.9914 28.2171 56.9535 25.8265 54.7882C32.5672 54.7882 39.1316 54.7882 45.9018 54.7882C45.9018 60.7746 45.9018 66.7805 45.9018 72.855C43.7365 70.9151 41.5223 68.936 39.2786 66.9275C38.485 67.5055 37.7502 68.0836 36.986 68.6126C27.9624 74.8733 14.9707 74.5892 6.69176 67.8778C1.86154 63.9588 -0.391915 58.864 0.0587753 52.6132C0.0783705 52.3584 0.146954 52.1135 0.225335 51.7216Z" fill="white"/>
<path id="Vector_8" d="M20.7317 50.1246C19.9087 50.1246 19.1151 50.1246 18.3117 50.1246C18.3117 50.9084 18.3117 51.6922 18.3117 52.4858C17.7239 52.4858 17.136 52.4858 16.5286 52.4858C16.5286 51.702 16.5286 50.9182 16.5286 50.1246C15.7154 50.1246 14.9021 50.1246 14.0791 50.1246C14.0791 41.5419 14.0791 33.0082 14.0791 24.3961C14.8924 24.3961 15.7056 24.3961 16.5286 24.3961C16.5286 23.6123 16.5286 22.8284 16.5286 22.0348C17.1262 22.0348 17.7141 22.0348 18.3117 22.0348C18.3117 22.8186 18.3117 23.6025 18.3117 24.3961C19.1151 24.3961 19.9185 24.3961 20.7317 24.3961C20.7317 32.9396 20.7317 41.4929 20.7317 50.1246ZM45.8332 27.9134C44.9906 27.9134 44.1676 27.9134 43.3446 27.9134C43.3446 26.9532 43.3446 25.9931 43.3446 25.0329C42.7959 25.0329 42.2669 25.0329 41.7378 25.0329C41.7378 25.9931 41.7378 26.9532 41.7378 27.9134C40.905 27.9134 40.082 27.9134 39.2492 27.9134C39.2492 35.1832 39.2492 42.3943 39.2492 49.6053C40.0918 49.6053 40.9148 49.6053 41.7378 49.6053C41.7378 50.5655 41.7378 51.5256 41.7378 52.4858C42.2865 52.4858 42.8155 52.4858 43.3446 52.4858C43.3446 51.5256 43.3446 50.5655 43.3446 49.6053C44.1774 49.6053 45.0102 49.6053 45.8332 49.6053C45.8332 42.3355 45.8332 35.144 45.8332 27.9134ZM8.18099 36.6823C7.3286 36.6823 6.4958 36.6823 5.65321 36.6823C5.65321 35.7417 5.65321 34.8011 5.65321 33.8605C5.10454 33.8605 4.57547 33.8605 4.0464 33.8605C4.0464 34.8011 4.0464 35.7417 4.0464 36.6823C3.2038 36.6823 2.36121 36.6823 1.51862 36.6823C1.51862 41.0422 1.51862 45.3335 1.51862 49.6543C2.37101 49.6543 3.2038 49.6543 4.0464 49.6543C4.0464 50.5949 4.0464 51.5354 4.0464 52.476C4.59506 52.476 5.12414 52.476 5.65321 52.476C5.65321 51.5256 5.65321 50.5949 5.65321 49.6543C6.4958 49.6543 7.3384 49.6543 8.18099 49.6543C8.18099 45.2944 8.18099 41.0128 8.18099 36.6823ZM33.2825 36.8096C32.4399 36.8096 31.6169 36.8096 30.7939 36.8096C30.7939 35.8201 30.7939 34.8403 30.7939 33.8507C30.2452 33.8507 29.7161 33.8507 29.1871 33.8507C29.1871 34.8403 29.1871 35.8201 29.1871 36.8096C28.3445 36.8096 27.5019 36.8096 26.6495 36.8096C26.6495 41.0814 26.6495 45.3042 26.6495 49.5857C27.5117 49.5857 28.3543 49.5857 29.1871 49.5857C29.1871 50.5459 29.1871 51.5158 29.1871 52.476C29.7357 52.476 30.2648 52.476 30.7939 52.476C30.7939 51.506 30.7939 50.5459 30.7939 49.5857C31.6267 49.5857 32.4595 49.5857 33.2825 49.5857C33.2825 45.2846 33.2825 41.0618 33.2825 36.8096Z" fill="url(#paint0_linear_33_6)"/>
</g>
</g>
</g>
</g>
<defs>
<linearGradient id="paint0_linear_33_6" x1="1.52175" y1="37.2612" x2="45.8372" y2="37.2612" gradientUnits="userSpaceOnUse">
<stop stop-color="#AF7B2B"/>
<stop offset="0.1838" stop-color="#B17E2C"/>
<stop offset="0.3749" stop-color="#B88732"/>
<stop offset="0.5694" stop-color="#C3983E"/>
<stop offset="0.7663" stop-color="#D3B154"/>
<stop offset="0.9632" stop-color="#EDD674"/>
<stop offset="1" stop-color="#F3E07B"/>
</linearGradient>
<clipPath id="clip0_33_6">
<rect width="213" height="75.0987" fill="white"/>
</clipPath>
</defs>
</svg>
